<svg width="544" height="135" viewBox="0 0 544 135" fill="none" xmlns="http://www.w3.org/2000/svg">
<path d="M236.992 59.1015C242.311 59.1015 246.587 60.7429 249.82 64.0255C253.106 67.2559 254.748 71.7891 254.748 77.625V103.026H243.797V79.11C243.797 75.7232 242.937 73.144 241.216 71.3723C239.495 69.5488 237.148 68.6368 234.176 68.6368C231.203 68.6368 228.831 69.5488 227.058 71.3723C225.337 73.144 224.476 75.7232 224.476 79.11V103.026H213.525V79.11C213.525 75.7232 212.665 73.144 210.944 71.3723C209.223 69.5488 206.876 68.6368 203.904 68.6368C200.879 68.6368 198.481 69.5488 196.707 71.3723C194.987 73.144 194.126 75.7232 194.126 79.11V103.026H183.175V59.7268H194.126V64.9634C195.534 63.1398 197.333 61.7067 199.523 60.6647C201.766 59.6227 204.217 59.1015 206.876 59.1015C210.266 59.1015 213.291 59.8309 215.95 61.29C218.61 62.6968 220.669 64.7289 222.13 67.3863C223.538 64.8852 225.571 62.8791 228.231 61.3681C230.943 59.8572 233.863 59.1015 236.992 59.1015ZM306.05 59.7268V103.026H295.021V97.5552C293.613 99.431 291.762 100.916 289.467 102.01C287.225 103.052 284.774 103.573 282.114 103.573C278.725 103.573 275.727 102.87 273.119 101.463C270.512 100.004 268.452 97.8938 266.939 95.1323C265.479 92.3186 264.749 88.9838 264.749 85.1281V59.7268H275.7V83.565C275.7 87.0039 276.561 89.6613 278.282 91.5371C280.002 93.3606 282.349 94.2726 285.322 94.2726C288.346 94.2726 290.719 93.3606 292.44 91.5371C294.161 89.6613 295.021 87.0039 295.021 83.565V59.7268H306.05ZM333.83 59.0234C337.063 59.0234 339.905 59.6746 342.356 60.9773C344.807 62.2279 346.737 63.8692 348.145 65.9013V59.7268H359.175V103.339C359.175 107.351 358.364 110.92 356.75 114.047C355.132 117.225 352.708 119.726 349.474 121.55C346.241 123.425 342.33 124.363 337.741 124.363C331.587 124.363 326.529 122.931 322.566 120.065C318.655 117.199 316.438 113.291 315.917 108.341H326.79C327.363 110.321 328.589 111.884 330.466 113.03C332.396 114.229 334.716 114.828 337.428 114.828C340.609 114.828 343.19 113.864 345.172 111.936C347.154 110.06 348.145 107.195 348.145 103.339V96.6173C346.737 98.6494 344.781 100.343 342.278 101.698C339.827 103.052 337.011 103.73 333.83 103.73C330.179 103.73 326.842 102.792 323.818 100.916C320.793 99.0402 318.394 96.4088 316.621 93.0221C314.9 89.5831 314.04 85.6493 314.04 81.2202C314.04 76.8434 314.9 72.9614 316.621 69.5747C318.394 66.188 320.767 63.5825 323.739 61.7589C326.764 59.9353 330.127 59.0234 333.83 59.0234ZM348.145 81.3765C348.145 78.7192 347.623 76.4526 346.58 74.5768C345.537 72.6488 344.129 71.1901 342.356 70.2C340.583 69.158 338.68 68.6368 336.646 68.6368C334.612 68.6368 332.735 69.1317 331.014 70.1218C329.293 71.1119 327.885 72.5706 326.79 74.4986C325.747 76.3744 325.226 78.6151 325.226 81.2202C325.226 83.8254 325.747 86.1182 326.79 88.0981C327.885 90.0261 329.293 91.5111 331.014 92.5531C332.787 93.5951 334.664 94.1163 336.646 94.1163C338.68 94.1163 340.583 93.6214 342.356 92.6313C344.129 91.5893 345.537 90.1302 346.58 88.2544C347.623 86.3264 348.145 84.0339 348.145 81.3765ZM367.054 81.2202C367.054 76.8434 367.915 72.9614 369.635 69.5747C371.406 66.188 373.781 63.5825 376.754 61.7589C379.776 59.9353 383.139 59.0234 386.844 59.0234C390.076 59.0234 392.892 59.6746 395.292 60.9773C397.742 62.2801 399.698 63.9214 401.159 65.9013V59.7268H412.188V103.026H401.159V96.6955C399.751 98.7276 397.796 100.421 395.292 101.776C392.839 103.079 389.998 103.73 386.766 103.73C383.115 103.73 379.776 102.792 376.754 100.916C373.781 99.0402 371.406 96.4088 369.635 93.0221C367.915 89.5831 367.054 85.6493 367.054 81.2202ZM401.159 81.3765C401.159 78.7192 400.636 76.4526 399.595 74.5768C398.549 72.6488 397.141 71.1901 395.371 70.2C393.596 69.158 391.694 68.6368 389.66 68.6368C387.627 68.6368 385.749 69.1317 384.028 70.1218C382.307 71.1119 380.899 72.5706 379.804 74.4986C378.759 76.3744 378.24 78.6151 378.24 81.2202C378.24 83.8254 378.759 86.1182 379.804 88.0981C380.899 90.0261 382.307 91.5111 384.028 92.5531C385.799 93.5951 387.676 94.1163 389.66 94.1163C391.694 94.1163 393.596 93.6214 395.371 92.6313C397.141 91.5893 398.549 90.1302 399.595 88.2544C400.636 86.3264 401.159 84.0339 401.159 81.3765ZM433.835 45.1894V103.026H422.883V45.1894H433.835ZM450.208 54.5684C448.277 54.5684 446.663 53.9691 445.358 52.7708C444.107 51.5202 443.481 49.983 443.481 48.1594C443.481 46.3359 444.107 44.8246 445.358 43.6263C446.663 42.3758 448.277 41.7505 450.208 41.7505C452.139 41.7505 453.728 42.3758 454.979 43.6263C456.284 44.8246 456.935 46.3359 456.935 48.1594C456.935 49.983 456.284 51.5202 454.979 52.7708C453.728 53.9691 452.139 54.5684 450.208 54.5684ZM455.605 59.7268V103.026H444.654V59.7268H455.605ZM520.242 59.1015C525.561 59.1015 529.838 60.7429 533.07 64.0255C536.355 67.2559 537.998 71.7891 537.998 77.625V103.026H527.047V79.11C527.047 75.7232 526.187 73.144 524.466 71.3723C522.745 69.5488 520.398 68.6368 517.426 68.6368C514.453 68.6368 512.082 69.5488 510.307 71.3723C508.587 73.144 507.726 75.7232 507.726 79.11V103.026H496.775V79.11C496.775 75.7232 495.915 73.144 494.194 71.3723C492.473 69.5488 490.126 68.6368 487.154 68.6368C484.128 68.6368 481.732 69.5488 479.957 71.3723C478.236 73.144 477.376 75.7232 477.376 79.11V103.026H466.425V59.7268H477.376V64.9634C478.784 63.1398 480.583 61.7067 482.773 60.6647C485.017 59.6227 487.467 59.1015 490.126 59.1015C493.515 59.1015 496.54 59.8309 499.2 61.29C501.859 62.6968 503.918 64.7289 505.379 67.3863C506.787 64.8852 508.821 62.8791 511.481 61.3681C514.194 59.8572 517.113 59.1015 520.242 59.1015Z" fill="#0C0C0C" fill-opacity="0.9"/>
<path d="M106.667 0H28.4444C12.735 0 0 12.7245 0 28.4211V106.579C0 122.275 12.735 135 28.4444 135H106.667C122.376 135 135.111 122.275 135.111 106.579V28.4211C135.111 12.7245 122.376 0 106.667 0Z" fill="#FF6E30"/>
<path d="M68.2952 85.2916L93.2125 27.9948H108.117V103.026H95.1467V53.5737L73.529 103.026H63.0614L40.8747 53.5737V103.026H27.7903V27.9948H42.6952L68.2952 85.2916Z" fill="white"/>
</svg>
