<svg width="21" height="21" viewBox="0 0 21 21" fill="none" xmlns="http://www.w3.org/2000/svg">
<path d="M10.5 13.6386L3.84197 20.3152C3.42106 20.7337 2.88535 20.9429 2.23484 20.9429C1.58434 20.9429 1.04863 20.7337 0.627717 20.3152C0.209239 19.8967 0 19.3641 0 18.7174C0 18.0707 0.209239 17.538 0.627717 17.1196L7.30435 10.4429L0.627717 3.84209C0.209239 3.42114 0 2.88541 0 2.2349C0 1.58436 0.209239 1.04863 0.627717 0.627717C1.0462 0.209239 1.5788 0 2.22554 0C2.87228 0 3.40489 0.209239 3.82337 0.627717L10.5 7.30435L17.1008 0.627717C17.5218 0.209239 18.0575 0 18.708 0C19.3586 0 19.8943 0.209239 20.3152 0.627717C20.7717 1.08424 21 1.62636 21 2.25408C21 2.88179 20.7717 3.40489 20.3152 3.82337L13.6386 10.4429L20.3152 17.101C20.7337 17.5219 20.9429 18.0576 20.9429 18.7081C20.9429 19.3586 20.7337 19.8943 20.3152 20.3152C19.8587 20.7717 19.3166 21 18.6889 21C18.0611 21 17.538 20.7717 17.1196 20.3152L10.5 13.6386Z" fill="#B4B4B4"/>
</svg>
