<svg width="568" height="532" viewBox="0 0 568 532" fill="none" xmlns="http://www.w3.org/2000/svg">
<path opacity="0.4" d="M335.43 252.061C328.204 247.949 323.019 247.865 319.874 251.725C316.644 255.586 315.113 262.131 315.113 271.279V320.791C315.113 330.19 314.263 337.994 312.478 344.204C310.693 350.666 307.718 355.198 303.638 357.883C299.643 360.652 294.202 361.324 287.317 360.065C280.601 358.89 272.186 355.366 262.155 349.659L257.395 346.89V307.867L263.43 311.308C270.656 315.42 275.416 315.924 277.796 312.986C280.346 310.049 281.621 304.007 281.621 294.86V251.222C281.621 239.809 282.727 230.83 285.022 224.284C287.232 217.654 291.737 213.458 298.452 211.612C291.737 202.129 287.232 192.73 285.022 183.583C282.812 174.436 281.706 164.198 281.706 152.785V109.147C281.706 99.9997 280.431 92.447 277.881 86.6565C275.501 80.95 270.656 75.9988 263.515 71.8868L257.48 68.4461V29.4237L262.24 32.193C272.271 37.8995 280.686 44.0256 287.402 50.4874C294.287 57.0331 299.728 63.9145 303.723 71.2993C307.888 78.6842 310.863 86.5726 312.563 95.0484C314.348 103.273 315.198 112.084 315.198 121.483V170.995C315.198 180.142 316.814 188.534 319.959 196.003C323.189 203.472 328.374 209.346 335.515 213.374L335.43 252.061Z" fill="url(#paint0_linear_46785_9)"/>
<path opacity="0.4" d="M153.349 108.643C160.574 112.755 165.759 112.839 168.905 108.979C172.135 105.119 173.665 98.573 173.665 89.4258V39.9135C173.665 30.5146 174.515 22.7101 176.3 16.5001C178.085 10.0383 180.975 5.50667 184.971 2.73734C189.136 0.051925 194.576 -0.619428 201.291 0.55544C208.177 1.81423 216.677 5.33883 226.708 11.1292L231.468 13.8986V52.921L225.433 49.4803C218.207 45.3682 213.362 44.7808 210.812 47.718C208.432 50.7391 207.242 56.7813 207.242 66.0124V109.65C207.242 120.979 206.137 130.043 203.842 136.588C201.631 143.218 197.126 147.414 190.411 149.26C197.126 158.743 201.631 168.142 203.842 177.289C206.052 186.436 207.157 196.674 207.157 208.087V251.725C207.157 260.873 208.347 268.341 210.727 274.132C213.277 279.922 218.122 284.957 225.348 288.985L231.383 292.426V331.449L226.623 328.679C216.592 322.973 208.092 316.763 201.206 310.301C194.491 303.839 189.051 296.958 184.885 289.489C180.89 282.188 178 274.3 176.3 265.908C174.515 257.684 173.665 248.872 173.665 239.473V189.961C173.665 180.814 172.05 172.422 168.905 164.953C165.674 157.484 160.489 151.61 153.349 147.582V108.643Z" fill="url(#paint1_linear_46785_9)"/>
<path opacity="0.15" d="M359.996 10.7937L539.442 113.091L539.357 537.806L359.911 435.592L359.996 10.7937Z" fill="url(#paint2_linear_46785_9)"/>
<path d="M326.249 66.4319L469.058 147.75V186.772L326.249 105.454V66.4319Z" fill="#587298"/>
<path opacity="0.2" d="M383.373 247.11L518.701 324.232V442.306L383.373 365.184V247.11Z" fill="url(#paint3_linear_46785_9)"/>
<path opacity="0.15" d="M382.012 156.561L519.38 234.858V248.201L382.012 169.904V156.561Z" fill="#545454"/>
<path opacity="0.15" d="M382.012 183.415L500.764 251.054V264.397L382.012 196.758V183.415Z" fill="#545454"/>
<path opacity="0.15" d="M382.012 209.934L482.828 267.334V280.677L382.012 223.277V209.934Z" fill="#545454"/>
<path opacity="0.2" d="M359.996 10.7937L539.442 113.091V169.988L359.911 67.7748L359.996 10.7937Z" fill="url(#paint4_linear_46785_9)"/>
<path opacity="0.2" d="M404.794 65.1731C404.794 73.8168 399.693 77.8449 393.403 74.2364C387.113 70.6279 382.012 60.8094 382.012 52.1657C382.012 43.522 387.113 39.4939 393.403 43.1024C399.693 46.7109 404.794 56.6134 404.794 65.1731Z" fill="#545454"/>
<path opacity="0.15" d="M36.6372 140.868L589 455.565L588.915 880.531L36.5522 565.835L36.6372 140.868Z" fill="url(#paint5_linear_46785_9)"/>
<path d="M0 245.599L142.723 326.917V365.939L0 284.706V245.599Z" fill="#EA8C4F"/>
<path opacity="0.15" d="M73.8689 352.848L390.768 533.442V546.785L73.8689 366.191V352.848Z" fill="#545454"/>
<path opacity="0.15" d="M73.8689 379.702L347.245 535.456V548.799L73.8689 393.045V379.702Z" fill="#545454"/>
<path opacity="0.15" d="M73.8689 406.304L306.528 538.897V552.24L73.8689 419.647V406.304Z" fill="#545454"/>
<path opacity="0.2" d="M22.0159 419.564L253.995 551.736V669.811L22.0159 537.554V419.564Z" fill="url(#paint6_linear_46785_9)"/>
<path opacity="0.15" d="M45.3921 463.118L229.683 568.101V581.444L45.3921 476.461V463.118Z" fill="#545454"/>
<path opacity="0.15" d="M45.3921 489.972L192.961 574.059V587.402L45.3921 503.231V489.972Z" fill="#545454"/>
<path opacity="0.2" d="M36.637 140.868L588.235 455.229V512.798L36.637 198.521V140.868Z" fill="url(#paint7_linear_46785_9)"/>
<path opacity="0.2" d="M96.7357 203.892C96.7357 212.535 91.6354 216.564 85.345 212.955C79.0547 209.347 73.9543 199.528 73.9543 190.884C73.9543 182.241 79.0547 178.213 85.345 181.821C91.6354 185.43 96.7357 195.332 96.7357 203.892Z" fill="#545454"/>
<defs>
<linearGradient id="paint0_linear_46785_9" x1="384.36" y1="17.6462" x2="247.806" y2="257.435" gradientUnits="userSpaceOnUse">
<stop stop-color="#424C57"/>
<stop offset="0.903" stop-color="white" stop-opacity="0"/>
</linearGradient>
<linearGradient id="paint1_linear_46785_9" x1="303.984" y1="1.4929" x2="167.413" y2="241.253" gradientUnits="userSpaceOnUse">
<stop stop-color="#414B56"/>
<stop offset="0.903" stop-color="white" stop-opacity="0"/>
</linearGradient>
<linearGradient id="paint2_linear_46785_9" x1="542.816" y1="115.021" x2="374.517" y2="410.372" gradientUnits="userSpaceOnUse">
<stop stop-color="white"/>
<stop offset="1" stop-color="white" stop-opacity="0"/>
</linearGradient>
<linearGradient id="paint3_linear_46785_9" x1="476.95" y1="300.373" x2="430.174" y2="382.459" gradientUnits="userSpaceOnUse">
<stop stop-color="white"/>
<stop offset="1" stop-color="white" stop-opacity="0"/>
</linearGradient>
<linearGradient id="paint4_linear_46785_9" x1="421.521" y1="11.6761" x2="474.996" y2="165.03" gradientUnits="userSpaceOnUse">
<stop stop-color="#424C58"/>
<stop offset="1" stop-color="white" stop-opacity="0"/>
</linearGradient>
<linearGradient id="paint5_linear_46785_9" x1="405.97" y1="351.281" x2="316.825" y2="507.76" gradientUnits="userSpaceOnUse">
<stop stop-color="white"/>
<stop offset="1" stop-color="white" stop-opacity="0"/>
</linearGradient>
<linearGradient id="paint6_linear_46785_9" x1="163.887" y1="500.365" x2="117.112" y2="582.452" gradientUnits="userSpaceOnUse">
<stop stop-color="#434D58"/>
<stop offset="1" stop-color="white" stop-opacity="0"/>
</linearGradient>
<linearGradient id="paint7_linear_46785_9" x1="173.501" y1="94.4833" x2="378.978" y2="447.055" gradientUnits="userSpaceOnUse">
<stop stop-color="#546F94"/>
<stop offset="1" stop-color="white" stop-opacity="0"/>
</linearGradient>
</defs>
</svg>
