<svg width="592" height="530" viewBox="0 0 592 530" fill="none" xmlns="http://www.w3.org/2000/svg">
<path opacity="0.1" d="M315.967 4.08142L37.4119 425.435L315.967 263.804V4.08142Z" fill="url(#paint0_linear_46961_104)"/>
<path opacity="0.4" d="M50.0223 454.778C47.1498 456.467 45.8888 453.019 48.1307 449.641L342.73 4.22232C344.691 1.19656 347.634 1.1262 347.634 4.08159L347.564 278.651C347.564 280.621 346.232 282.944 344.551 283.929L50.0223 454.778ZM304.057 130.952C304.057 127.997 301.114 128.067 299.153 131.093L169.894 326.149C167.652 329.526 168.913 332.974 171.785 331.285L300.974 256.345C302.656 255.36 303.987 253.038 303.987 251.068L304.057 130.952Z" fill="url(#paint1_linear_46961_104)"/>
<path opacity="0.3" d="M208.496 13.2995L0 134.259V243.398L190.071 133.133L208.426 139.185L208.496 13.2995Z" fill="url(#paint2_linear_46961_104)"/>
<path d="M166.111 74.4479C166.111 83.4548 171.435 87.6768 177.951 83.877C184.466 80.0773 189.791 69.7334 189.791 60.7265C189.791 51.7196 184.466 47.4976 177.951 51.2974C171.435 55.0972 166.111 65.441 166.111 74.4479Z" fill="#EA8C4F"/>
<path opacity="0.15" d="M154.901 70.9295L109.223 97.4576V107.027L154.901 80.4993V70.9295Z" fill="#333333"/>
<path opacity="0.15" d="M154.901 90.1394L18.4254 169.302V178.871L154.901 99.7092V90.1394Z" fill="#333333"/>
<path opacity="0.15" d="M154.901 109.35L48.2006 171.272V180.842L154.901 118.919V109.35Z" fill="#333333"/>
<path opacity="0.3" d="M383.504 282.24L592 161.28V270.418L401.859 380.682L383.434 408.055L383.504 282.24Z" fill="url(#paint3_linear_46961_104)"/>
<path d="M425.89 294.202C425.89 303.209 420.566 313.553 414.05 317.352C407.535 321.152 402.21 316.93 402.21 307.923C402.21 298.916 407.535 288.572 414.05 284.773C420.566 281.043 425.89 285.265 425.89 294.202Z" fill="#587298"/>
<path opacity="0.15" d="M437.099 277.736L482.778 251.208V260.778L437.099 287.306V277.736Z" fill="#4E4E4E"/>
<path opacity="0.15" d="M437.099 296.876L573.505 217.714V227.284L437.099 306.516V296.876Z" fill="#4E4E4E"/>
<path opacity="0.15" d="M437.099 316.086L543.8 254.164V263.733L437.099 325.656V316.086Z" fill="#4E4E4E"/>
<path opacity="0.2" d="M457.697 0L370.613 50.5231L370.543 240.02L457.627 189.497L457.697 0Z" fill="url(#paint4_linear_46961_104)"/>
<path d="M484.879 52.001L416.362 91.758V114.486L484.879 74.7294V52.001Z" fill="#587298"/>
<path opacity="0.15" d="M457.627 161.35L370.543 211.873V239.95L457.627 189.427V161.35Z" fill="#6A6A6A"/>
<path opacity="0.15" d="M446.908 34.4094L411.178 55.0971V64.667L446.908 43.9793V34.4094Z" fill="#6A6A6A"/>
<path opacity="0.15" d="M446.908 53.6193L383.714 90.2802V99.85L446.908 63.1892V53.6193Z" fill="#6A6A6A"/>
<path opacity="0.15" d="M409.846 158.465V168.035L446.908 146.503V136.933L409.846 158.465Z" fill="#6A6A6A"/>
<path opacity="0.2" d="M273.722 340.503L360.805 289.98L360.735 479.477L273.652 530L273.722 340.503Z" fill="url(#paint5_linear_46961_104)"/>
<path d="M246.398 424.098L314.916 384.341V407.07L246.398 446.827V424.098Z" fill="#EA8C4F"/>
<path opacity="0.15" d="M273.652 501.853L360.735 451.33V479.406L273.652 529.93V501.853Z" fill="#595959"/>
<path opacity="0.15" d="M347.634 325.796L311.904 346.484V356.054L347.634 335.366V325.796Z" fill="#595959"/>
<path opacity="0.15" d="M347.634 345.006L284.44 381.667V391.237L347.634 354.576V345.006Z" fill="#595959"/>
<path opacity="0.15" d="M321.502 443.519V453.089L284.44 474.621V465.051L321.502 443.519Z" fill="#595959"/>
<path opacity="0.2" d="M95.9813 219.965C91.7777 222.358 88.4149 228.269 88.4149 233.124V254.586L74.2629 262.748C70.0594 265.141 66.6965 271.051 66.6965 275.907C66.6965 280.762 70.0594 282.732 74.2629 280.34L88.4149 272.177V293.639C88.4149 298.494 91.7777 300.465 95.9813 298.072C100.185 295.68 103.548 289.769 103.548 284.914V263.452L117.7 255.289C121.903 252.897 125.266 246.986 125.266 242.131C125.266 237.275 121.903 235.305 117.7 237.698L103.548 245.86V224.398C103.548 219.473 100.185 217.503 95.9813 219.965Z" fill="url(#paint6_linear_46961_104)"/>
<defs>
<linearGradient id="paint0_linear_46961_104" x1="113.045" y1="104.106" x2="256.631" y2="351.568" gradientUnits="userSpaceOnUse">
<stop stop-color="#666666"/>
<stop offset="1" stop-opacity="0"/>
</linearGradient>
<linearGradient id="paint1_linear_46961_104" x1="128.293" y1="108.553" x2="273.7" y2="359" gradientUnits="userSpaceOnUse">
<stop stop-color="#4A4A4A"/>
<stop offset="0.661667" stop-color="#727171" stop-opacity="0"/>
</linearGradient>
<linearGradient id="paint2_linear_46961_104" x1="118.868" y1="16.8671" x2="91.8209" y2="236.398" gradientUnits="userSpaceOnUse">
<stop stop-color="#585151"/>
<stop offset="0.6" stop-color="#8A8787" stop-opacity="0.388333"/>
</linearGradient>
<linearGradient id="paint3_linear_46961_104" x1="428.982" y1="238.505" x2="536.992" y2="322.663" gradientUnits="userSpaceOnUse">
<stop stop-color="#454545"/>
<stop offset="0.611667" stop-color="#8A8787" stop-opacity="0.388333"/>
</linearGradient>
<linearGradient id="paint4_linear_46961_104" x1="373.27" y1="48.9819" x2="449.04" y2="179.567" gradientUnits="userSpaceOnUse">
<stop stop-color="#6D6D6D"/>
<stop offset="0.796667" stop-color="#949494" stop-opacity="0"/>
</linearGradient>
<linearGradient id="paint5_linear_46961_104" x1="276.332" y1="338.965" x2="352.102" y2="469.55" gradientUnits="userSpaceOnUse">
<stop stop-color="#454545"/>
<stop offset="0.775" stop-color="#616161" stop-opacity="0"/>
</linearGradient>
<linearGradient id="paint6_linear_46961_104" x1="81.3252" y1="247.385" x2="118.129" y2="276.304" gradientUnits="userSpaceOnUse">
<stop stop-color="white"/>
<stop offset="1" stop-color="white" stop-opacity="0"/>
</linearGradient>
</defs>
</svg>
