<svg width="153" height="38" viewBox="0 0 153 38" fill="none" xmlns="http://www.w3.org/2000/svg">
<path d="M66.654 16.636C68.15 16.636 69.3527 17.098 70.262 18.022C71.186 18.9313 71.648 20.2073 71.648 21.85V29H68.568V22.268C68.568 21.3147 68.326 20.5887 67.842 20.09C67.358 19.5767 66.698 19.32 65.862 19.32C65.026 19.32 64.3587 19.5767 63.86 20.09C63.376 20.5887 63.134 21.3147 63.134 22.268V29H60.054V22.268C60.054 21.3147 59.812 20.5887 59.328 20.09C58.844 19.5767 58.184 19.32 57.348 19.32C56.4973 19.32 55.8227 19.5767 55.324 20.09C54.84 20.5887 54.598 21.3147 54.598 22.268V29H51.518V16.812H54.598V18.286C54.994 17.7727 55.5 17.3693 56.116 17.076C56.7467 16.7827 57.436 16.636 58.184 16.636C59.1373 16.636 59.988 16.8413 60.736 17.252C61.484 17.648 62.0633 18.22 62.474 18.968C62.87 18.264 63.442 17.6993 64.19 17.274C64.9527 16.8487 65.774 16.636 66.654 16.636ZM86.0767 16.812V29H82.9747V27.46C82.5787 27.988 82.0581 28.406 81.4127 28.714C80.7821 29.0073 80.0927 29.154 79.3447 29.154C78.3914 29.154 77.5481 28.956 76.8147 28.56C76.0814 28.1493 75.5021 27.5553 75.0767 26.778C74.6661 25.986 74.4607 25.0473 74.4607 23.962V16.812H77.5407V23.522C77.5407 24.49 77.7827 25.238 78.2667 25.766C78.7507 26.2793 79.4107 26.536 80.2467 26.536C81.0974 26.536 81.7647 26.2793 82.2487 25.766C82.7327 25.238 82.9747 24.49 82.9747 23.522V16.812H86.0767ZM93.8897 16.614C94.799 16.614 95.5983 16.7973 96.2877 17.164C96.977 17.516 97.5197 17.978 97.9157 18.55V16.812H101.018V29.088C101.018 30.2173 100.79 31.222 100.336 32.102C99.881 32.9967 99.199 33.7007 98.2897 34.214C97.3803 34.742 96.2803 35.006 94.9897 35.006C93.259 35.006 91.8363 34.6027 90.7217 33.796C89.6217 32.9893 88.9983 31.8893 88.8517 30.496H91.9097C92.071 31.0533 92.4157 31.4933 92.9437 31.816C93.4863 32.1533 94.139 32.322 94.9017 32.322C95.7963 32.322 96.5223 32.0507 97.0797 31.508C97.637 30.98 97.9157 30.1733 97.9157 29.088V27.196C97.5197 27.768 96.9697 28.2447 96.2657 28.626C95.5763 29.0073 94.7843 29.198 93.8897 29.198C92.863 29.198 91.9243 28.934 91.0737 28.406C90.223 27.878 89.5483 27.1373 89.0497 26.184C88.5657 25.216 88.3237 24.1087 88.3237 22.862C88.3237 21.63 88.5657 20.5373 89.0497 19.584C89.5483 18.6307 90.2157 17.8973 91.0517 17.384C91.9023 16.8707 92.8483 16.614 93.8897 16.614ZM97.9157 22.906C97.9157 22.158 97.769 21.52 97.4757 20.992C97.1823 20.4493 96.7863 20.0387 96.2877 19.76C95.789 19.4667 95.2537 19.32 94.6817 19.32C94.1097 19.32 93.5817 19.4593 93.0977 19.738C92.6137 20.0167 92.2177 20.4273 91.9097 20.97C91.6163 21.498 91.4697 22.1287 91.4697 22.862C91.4697 23.5953 91.6163 24.2407 91.9097 24.798C92.2177 25.3407 92.6137 25.7587 93.0977 26.052C93.5963 26.3453 94.1243 26.492 94.6817 26.492C95.2537 26.492 95.789 26.3527 96.2877 26.074C96.7863 25.7807 97.1823 25.37 97.4757 24.842C97.769 24.2993 97.9157 23.654 97.9157 22.906ZM103.234 22.862C103.234 21.63 103.476 20.5373 103.96 19.584C104.458 18.6307 105.126 17.8973 105.962 17.384C106.812 16.8707 107.758 16.614 108.8 16.614C109.709 16.614 110.501 16.7973 111.176 17.164C111.865 17.5307 112.415 17.9927 112.826 18.55V16.812H115.928V29H112.826V27.218C112.43 27.79 111.88 28.2667 111.176 28.648C110.486 29.0147 109.687 29.198 108.778 29.198C107.751 29.198 106.812 28.934 105.962 28.406C105.126 27.878 104.458 27.1373 103.96 26.184C103.476 25.216 103.234 24.1087 103.234 22.862ZM112.826 22.906C112.826 22.158 112.679 21.52 112.386 20.992C112.092 20.4493 111.696 20.0387 111.198 19.76C110.699 19.4667 110.164 19.32 109.592 19.32C109.02 19.32 108.492 19.4593 108.008 19.738C107.524 20.0167 107.128 20.4273 106.82 20.97C106.526 21.498 106.38 22.1287 106.38 22.862C106.38 23.5953 106.526 24.2407 106.82 24.798C107.128 25.3407 107.524 25.7587 108.008 26.052C108.506 26.3453 109.034 26.492 109.592 26.492C110.164 26.492 110.699 26.3527 111.198 26.074C111.696 25.7807 112.092 25.37 112.386 24.842C112.679 24.2993 112.826 23.654 112.826 22.906ZM122.016 12.72V29H118.936V12.72H122.016ZM126.621 15.36C126.078 15.36 125.624 15.1913 125.257 14.854C124.905 14.502 124.729 14.0693 124.729 13.556C124.729 13.0427 124.905 12.6173 125.257 12.28C125.624 11.928 126.078 11.752 126.621 11.752C127.164 11.752 127.611 11.928 127.963 12.28C128.33 12.6173 128.513 13.0427 128.513 13.556C128.513 14.0693 128.33 14.502 127.963 14.854C127.611 15.1913 127.164 15.36 126.621 15.36ZM128.139 16.812V29H125.059V16.812H128.139ZM146.318 16.636C147.814 16.636 149.017 17.098 149.926 18.022C150.85 18.9313 151.312 20.2073 151.312 21.85V29H148.232V22.268C148.232 21.3147 147.99 20.5887 147.506 20.09C147.022 19.5767 146.362 19.32 145.526 19.32C144.69 19.32 144.023 19.5767 143.524 20.09C143.04 20.5887 142.798 21.3147 142.798 22.268V29H139.718V22.268C139.718 21.3147 139.476 20.5887 138.992 20.09C138.508 19.5767 137.848 19.32 137.012 19.32C136.161 19.32 135.487 19.5767 134.988 20.09C134.504 20.5887 134.262 21.3147 134.262 22.268V29H131.182V16.812H134.262V18.286C134.658 17.7727 135.164 17.3693 135.78 17.076C136.411 16.7827 137.1 16.636 137.848 16.636C138.801 16.636 139.652 16.8413 140.4 17.252C141.148 17.648 141.727 18.22 142.138 18.968C142.534 18.264 143.106 17.6993 143.854 17.274C144.617 16.8487 145.438 16.636 146.318 16.636Z" fill="#0C0C0C" fill-opacity="0.9"/>
<rect width="38" height="38" rx="8" fill="#FF6E30"/>
<path d="M19.208 24.008L26.216 7.88H30.408V29H26.76V15.08L20.68 29H17.736L11.496 15.08V29H7.816V7.88H12.008L19.208 24.008Z" fill="white"/>
</svg>
