<svg width="24" height="24" viewBox="0 0 24 24" fill="none" xmlns="http://www.w3.org/2000/svg">
<path d="M19.8827 4.88134L19.1468 4.14539C18.9388 3.9374 18.5548 3.96941 18.3148 4.25736L15.7546 6.80132C14.6025 6.30538 13.3386 6.06538 12.0106 6.06538C8.05847 6.08132 4.63469 8.38529 2.98657 11.6975C2.89054 11.9055 2.89054 12.1614 2.98657 12.3374C3.7545 13.9054 4.90657 15.2015 6.34658 16.1774L4.25059 18.3054C4.01058 18.5454 3.97858 18.9293 4.13862 19.1374L4.87457 19.8733C5.08256 20.0813 5.46654 20.0493 5.70654 19.7613L19.7545 5.71345C20.0585 5.47358 20.0905 5.08962 19.8825 4.88161L19.8827 4.88134ZM12.8586 9.71322C12.5866 9.6492 12.2986 9.56925 12.0266 9.56925C10.6666 9.56925 9.57866 10.6573 9.57866 12.0172C9.57866 12.2892 9.64268 12.5771 9.72264 12.8492L8.65052 13.9052C8.33056 13.3452 8.15458 12.7211 8.15458 12.0172C8.15458 9.88924 9.8666 8.17722 11.9946 8.17722C12.6986 8.17722 13.3226 8.3532 13.8826 8.67316L12.8586 9.71322Z" fill="#666666" fill-opacity="0.8"/>
<path d="M21.0347 11.6974C20.4747 10.5774 19.7386 9.56945 18.8267 8.75342L15.8507 11.6974V12.0174C15.8507 14.1454 14.1387 15.8574 12.0107 15.8574H11.6907L9.80273 17.7454C10.5068 17.8893 11.2427 17.9854 11.9627 17.9854C15.9149 17.9854 19.3386 15.6814 20.9868 12.3532C21.1307 12.1292 21.1307 11.9053 21.0347 11.6973L21.0347 11.6974Z" fill="#666666" fill-opacity="0.8"/>
</svg>
